<mxfile host="app.diagrams.net" agent="Mozilla/5.0 (Windows NT 10.0; Win64; x64) AppleWebKit/537.36 (KHTML, like Gecko) Chrome/135.0.0.0 Safari/537.36" version="26.2.13">
  <diagram name="Page-1" id="seDdwqfj-wWKlF2andzK">
    <mxGraphModel dx="586" dy="630" grid="1" gridSize="10" guides="1" tooltips="1" connect="1" arrows="1" fold="1" page="1" pageScale="1" pageWidth="850" pageHeight="1100" math="0" shadow="0">
      <root>
        <mxCell id="0" />
        <mxCell id="1" parent="0" />
        <mxCell id="Xg2WDtuRWfe4fpey-R-n-3" style="edgeStyle=orthogonalEdgeStyle;rounded=0;orthogonalLoop=1;jettySize=auto;html=1;exitX=0.5;exitY=0;exitDx=0;exitDy=0;labelBackgroundColor=none;fontColor=default;" edge="1" parent="1" source="Xg2WDtuRWfe4fpey-R-n-2" target="Xg2WDtuRWfe4fpey-R-n-1">
          <mxGeometry relative="1" as="geometry" />
        </mxCell>
        <mxCell id="Xg2WDtuRWfe4fpey-R-n-5" style="edgeStyle=orthogonalEdgeStyle;rounded=0;orthogonalLoop=1;jettySize=auto;html=1;labelBackgroundColor=none;fontColor=default;" edge="1" parent="1" source="Xg2WDtuRWfe4fpey-R-n-1" target="Xg2WDtuRWfe4fpey-R-n-4">
          <mxGeometry relative="1" as="geometry" />
        </mxCell>
        <mxCell id="Xg2WDtuRWfe4fpey-R-n-1" value="APP (renders layout/searchbar/booklist" style="rounded=1;whiteSpace=wrap;html=1;labelBackgroundColor=none;" vertex="1" parent="1">
          <mxGeometry x="130" y="170" width="160" height="50" as="geometry" />
        </mxCell>
        <mxCell id="Xg2WDtuRWfe4fpey-R-n-2" value="books API" style="rounded=1;whiteSpace=wrap;html=1;labelBackgroundColor=none;" vertex="1" parent="1">
          <mxGeometry x="10" y="290" width="120" height="60" as="geometry" />
        </mxCell>
        <mxCell id="Xg2WDtuRWfe4fpey-R-n-12" style="edgeStyle=orthogonalEdgeStyle;rounded=0;orthogonalLoop=1;jettySize=auto;html=1;entryX=0.5;entryY=0;entryDx=0;entryDy=0;labelBackgroundColor=none;fontColor=default;" edge="1" parent="1" source="Xg2WDtuRWfe4fpey-R-n-4" target="Xg2WDtuRWfe4fpey-R-n-11">
          <mxGeometry relative="1" as="geometry" />
        </mxCell>
        <mxCell id="Xg2WDtuRWfe4fpey-R-n-14" style="edgeStyle=orthogonalEdgeStyle;rounded=0;orthogonalLoop=1;jettySize=auto;html=1;entryX=0.5;entryY=0;entryDx=0;entryDy=0;labelBackgroundColor=none;fontColor=default;" edge="1" parent="1" source="Xg2WDtuRWfe4fpey-R-n-4" target="Xg2WDtuRWfe4fpey-R-n-13">
          <mxGeometry relative="1" as="geometry" />
        </mxCell>
        <mxCell id="Xg2WDtuRWfe4fpey-R-n-16" style="edgeStyle=orthogonalEdgeStyle;rounded=0;orthogonalLoop=1;jettySize=auto;html=1;entryX=0;entryY=0.5;entryDx=0;entryDy=0;labelBackgroundColor=none;fontColor=default;" edge="1" parent="1" source="Xg2WDtuRWfe4fpey-R-n-4" target="Xg2WDtuRWfe4fpey-R-n-15">
          <mxGeometry relative="1" as="geometry" />
        </mxCell>
        <mxCell id="Xg2WDtuRWfe4fpey-R-n-4" value="Layout&lt;div&gt;&lt;br&gt;&lt;/div&gt;" style="rounded=1;whiteSpace=wrap;html=1;labelBackgroundColor=none;" vertex="1" parent="1">
          <mxGeometry x="350" y="280" width="100" height="40" as="geometry" />
        </mxCell>
        <mxCell id="Xg2WDtuRWfe4fpey-R-n-9" style="edgeStyle=orthogonalEdgeStyle;rounded=0;orthogonalLoop=1;jettySize=auto;html=1;entryX=0.5;entryY=0;entryDx=0;entryDy=0;labelBackgroundColor=none;fontColor=default;" edge="1" parent="1" source="Xg2WDtuRWfe4fpey-R-n-6" target="Xg2WDtuRWfe4fpey-R-n-8">
          <mxGeometry relative="1" as="geometry" />
        </mxCell>
        <mxCell id="Xg2WDtuRWfe4fpey-R-n-6" value="booklist" style="rounded=1;whiteSpace=wrap;html=1;labelBackgroundColor=none;" vertex="1" parent="1">
          <mxGeometry x="350" y="520" width="120" height="40" as="geometry" />
        </mxCell>
        <mxCell id="Xg2WDtuRWfe4fpey-R-n-8" value="bookCard" style="rounded=1;whiteSpace=wrap;html=1;labelBackgroundColor=none;" vertex="1" parent="1">
          <mxGeometry x="350" y="740" width="120" height="60" as="geometry" />
        </mxCell>
        <mxCell id="Xg2WDtuRWfe4fpey-R-n-10" value="searchBar" style="rounded=1;whiteSpace=wrap;html=1;labelBackgroundColor=none;" vertex="1" parent="1">
          <mxGeometry x="520" y="440" width="120" height="40" as="geometry" />
        </mxCell>
        <mxCell id="Xg2WDtuRWfe4fpey-R-n-11" value="Header" style="rounded=1;whiteSpace=wrap;html=1;labelBackgroundColor=none;" vertex="1" parent="1">
          <mxGeometry x="200" y="350" width="120" height="40" as="geometry" />
        </mxCell>
        <mxCell id="Xg2WDtuRWfe4fpey-R-n-17" style="edgeStyle=orthogonalEdgeStyle;rounded=0;orthogonalLoop=1;jettySize=auto;html=1;entryX=0.5;entryY=0;entryDx=0;entryDy=0;labelBackgroundColor=none;fontColor=default;" edge="1" parent="1" source="Xg2WDtuRWfe4fpey-R-n-13" target="Xg2WDtuRWfe4fpey-R-n-10">
          <mxGeometry relative="1" as="geometry" />
        </mxCell>
        <mxCell id="Xg2WDtuRWfe4fpey-R-n-19" style="edgeStyle=orthogonalEdgeStyle;rounded=0;orthogonalLoop=1;jettySize=auto;html=1;" edge="1" parent="1" source="Xg2WDtuRWfe4fpey-R-n-13" target="Xg2WDtuRWfe4fpey-R-n-6">
          <mxGeometry relative="1" as="geometry" />
        </mxCell>
        <mxCell id="Xg2WDtuRWfe4fpey-R-n-13" value="MAIN" style="rounded=1;whiteSpace=wrap;html=1;labelBackgroundColor=none;" vertex="1" parent="1">
          <mxGeometry x="350" y="370" width="120" height="40" as="geometry" />
        </mxCell>
        <mxCell id="Xg2WDtuRWfe4fpey-R-n-15" value="Footer" style="rounded=1;whiteSpace=wrap;html=1;labelBackgroundColor=none;" vertex="1" parent="1">
          <mxGeometry x="500" y="300" width="120" height="60" as="geometry" />
        </mxCell>
      </root>
    </mxGraphModel>
  </diagram>
</mxfile>
